<svg xmlns="http://www.w3.org/2000/svg" xmlns:xlink="http://www.w3.org/1999/xlink" version="1.1" x="0px" y="0px" viewBox="0 0 100 125" enable-background="new 0 0 100 100" xml:space="preserve"><path d="M50.178,10.531c-21.763,0-39.469,17.706-39.469,39.469s17.706,39.469,39.469,39.469S89.646,71.763,89.646,50  S71.94,10.531,50.178,10.531z M66.015,62.812c0,1.263-0.896,1.78-1.99,1.148l-12.244-7.07v5.921c0,1.263-0.895,1.78-1.988,1.148  L27.601,51.149c-1.094-0.632-1.094-1.666,0-2.297l22.191-12.812c1.094-0.631,1.988-0.115,1.988,1.148v5.921l12.244-7.069  c1.094-0.631,1.99-0.115,1.99,1.148V62.812z"/><text x="0" y="115" fill="#000000" font-size="5px" font-weight="bold" font-family="'Helvetica Neue', Helvetica, Arial-Unicode, Arial, Sans-serif">Created by Robert Won</text><text x="0" y="120" fill="#000000" font-size="5px" font-weight="bold" font-family="'Helvetica Neue', Helvetica, Arial-Unicode, Arial, Sans-serif">from the Noun Project</text></svg>