<svg xmlns="http://www.w3.org/2000/svg" xmlns:xlink="http://www.w3.org/1999/xlink" version="1.1" x="0px" y="0px" viewBox="0 0 100 125" enable-background="new 0 0 100 100" xml:space="preserve"><g><path fill-rule="evenodd" clip-rule="evenodd" d="M55.963,20.532c-4.273,3.758-5.43,8.738-4.943,12.873   C54.451,30.136,56.689,26.352,55.963,20.532z"/><path fill-rule="evenodd" clip-rule="evenodd" d="M53.029,53.986c0.078,0.487,0.156,0.976,0.234,1.465   c0.512,3.192,1.027,6.426,1.465,9.63c0.053-0.047,0.1-0.098,0.156-0.14c1.596-1.164,2.549-3.038,2.549-5.015   C57.434,57.131,55.574,54.762,53.029,53.986z"/><path fill-rule="evenodd" clip-rule="evenodd" d="M49.001,54.128c-1.193,0.457-2.233,1.277-2.96,2.379   c-0.042,0.064-0.095,0.117-0.143,0.175c-0.265,0.741-0.415,1.536-0.415,2.366c0,0.555,0.065,1.109,0.195,1.65   c0.258,1.074-0.404,2.153-1.479,2.411c-1.076,0.263-2.153-0.404-2.411-1.478c-0.203-0.846-0.306-1.716-0.306-2.584   c0-4.558,2.768-8.479,6.709-10.176c-0.135-0.916-0.264-1.828-0.385-2.737c-0.071,0.057-0.144,0.113-0.215,0.169   c-5.627,4.416-10.488,8.229-9.512,13.938c0.006,0.034,0.002,0.067,0.007,0.103c1.682,4.184,5.951,7.169,10.954,7.169   c0.656,0,1.305-0.066,1.945-0.169c-0.473-3.721-1.074-7.518-1.674-11.261C49.208,55.433,49.105,54.78,49.001,54.128z"/><path fill-rule="evenodd" clip-rule="evenodd" d="M50,5.938C25.731,5.938,5.937,25.731,5.937,50S25.731,94.063,50,94.063   c24.27,0,44.063-19.794,44.063-44.063S74.27,5.938,50,5.938z M60.559,66.682c-0.031,0.034-0.053,0.072-0.086,0.105   c-0.039,0.04-0.084,0.074-0.125,0.114c-0.195,0.193-0.398,0.379-0.609,0.559c-1.301,1.158-2.781,2.101-4.389,2.776   c0.352,3.403,0.563,6.73,0.51,9.883c-0.002,0.013-0.004,0.025-0.006,0.038c0.002,0.09,0.006,0.178-0.006,0.269   c-0.479,3.848-3.859,6.775-8.225,7.121c-0.276,0.022-0.551,0.033-0.821,0.033c-4.058,0-7.335-2.434-8.475-6.373   c-0.016-0.055-0.019-0.109-0.03-0.164c-0.152-0.473-0.256-0.966-0.256-1.488c0-2.698,2.195-4.894,4.893-4.894   c2.699,0,4.894,2.195,4.894,4.894c0,1.612-0.794,3.033-2,3.925c0.628,0.113,1.173,0.104,1.48,0.08   c2.042-0.162,4.238-1.434,4.552-3.551c0.045-2.756-0.121-5.681-0.416-8.693c-0.792,0.118-1.592,0.198-2.401,0.198   c-8.672,0-15.729-6.774-15.729-15.101c0-0.588,0.049-1.18,0.121-1.77c0-0.014-0.003-0.027-0.002-0.041   c0.459-7.983,6.27-12.352,11.889-16.575c0.53-0.398,1.055-0.793,1.57-1.187c-0.535-10.219,0.971-19.155,7.979-24.288   c0.039-0.029,0.084-0.048,0.125-0.073c0.18-0.161,0.389-0.296,0.629-0.386c1.035-0.388,2.188,0.14,2.574,1.175   c0.52,1.394,0.92,2.712,1.221,3.967c4.775,12.841-1.281,20.274-7.965,25.952c0.191,1.575,0.41,3.181,0.648,4.807   c0.152-0.007,0.303-0.023,0.457-0.023c6.107,0,11.076,4.969,11.076,11.077C63.637,61.909,62.502,64.639,60.559,66.682z"/></g><text x="0" y="115" fill="#000000" font-size="5px" font-weight="bold" font-family="'Helvetica Neue', Helvetica, Arial-Unicode, Arial, Sans-serif">Created by Nikita Kozin</text><text x="0" y="120" fill="#000000" font-size="5px" font-weight="bold" font-family="'Helvetica Neue', Helvetica, Arial-Unicode, Arial, Sans-serif">from the Noun Project</text></svg>