<svg xmlns="http://www.w3.org/2000/svg" xmlns:xlink="http://www.w3.org/1999/xlink" xml:space="preserve" version="1.1" style="shape-rendering:geometricPrecision;text-rendering:geometricPrecision;image-rendering:optimizeQuality;" viewBox="0 0 186 412.5" x="0px" y="0px" fill-rule="evenodd" clip-rule="evenodd"><defs><style type="text/css">
   
    .fil0 {fill:black;fill-rule:nonzero}
   
  </style></defs><g><path class="fil0" d="M13 0l161 0c7,0 12,7 12,15l0 300c0,8 -5,15 -12,15l-161 0c-7,0 -13,-7 -13,-15l0 -300c0,-8 6,-15 13,-15zm161 14l-161 0c-1,0 -1,0 -1,1l0 300c0,0 0,1 1,1l161 0c0,0 0,-1 0,-1l0 -300c0,-1 0,-1 0,-1z"/><path class="fil0" d="M131 155l0 6 31 0c8,0 8,12 0,12 -13,0 -26,0 -39,0l0 -18 8 0z"/></g><text x="0" y="345" fill="#000000" font-size="5px" font-weight="bold" font-family="'Helvetica Neue', Helvetica, Arial-Unicode, Arial, Sans-serif">Created by yanti anis</text><text x="0" y="350" fill="#000000" font-size="5px" font-weight="bold" font-family="'Helvetica Neue', Helvetica, Arial-Unicode, Arial, Sans-serif">from the Noun Project</text></svg>